<svg width="598" height="598" viewBox="0 0 598 598" xmlns="http://www.w3.org/2000/svg">
    <rect x="0" y="0" width="100%" height="100%" fill="#eefff2" stroke="none" />
    <g transform="translate(300, 300)">
        <g xmlns="http://www.w3.org/2000/svg" transform="rotate(0, 0, 0)"><circle cx="246" cy="0" r="46" fill="#ff6b6b" stroke="#333333" stroke-width="1" vector-effect="non-scaling-stroke"/><path d="M 83.000,0 Q 98.000,10.000 113.000,0 Q 98.000,-10.000 83.000,0 Z" fill="#ca2e23" stroke="#333333" stroke-width="1" vector-effect="non-scaling-stroke"/><circle cx="199" cy="0" r="35" fill="#ffe66d" stroke="#333333" stroke-width="1" vector-effect="non-scaling-stroke"/><polygon points="170.000,-20.000 189.021,-6.180 181.756,16.180 158.244,16.180 150.979,-6.180" fill="#45b7d1" stroke="#333333" stroke-width="1" vector-effect="non-scaling-stroke"/><polygon points="38.000,-18.000 43.290,-7.281 55.119,-5.562 46.560,2.781 48.580,14.562 38.000,9.000 27.420,14.562 29.440,2.781 20.881,-5.562 32.710,-7.281" fill="#d8ec00" stroke="#333333" stroke-width="1" vector-effect="non-scaling-stroke"/></g><g xmlns="http://www.w3.org/2000/svg" transform="rotate(30, 0, 0)"><circle cx="246" cy="0" r="46" fill="#ff6b6b" stroke="#333333" stroke-width="1" vector-effect="non-scaling-stroke"/><path d="M 83.000,0 Q 98.000,10.000 113.000,0 Q 98.000,-10.000 83.000,0 Z" fill="#ca2e23" stroke="#333333" stroke-width="1" vector-effect="non-scaling-stroke"/><circle cx="199" cy="0" r="35" fill="#ffe66d" stroke="#333333" stroke-width="1" vector-effect="non-scaling-stroke"/><polygon points="170.000,-20.000 189.021,-6.180 181.756,16.180 158.244,16.180 150.979,-6.180" fill="#45b7d1" stroke="#333333" stroke-width="1" vector-effect="non-scaling-stroke"/><polygon points="38.000,-18.000 43.290,-7.281 55.119,-5.562 46.560,2.781 48.580,14.562 38.000,9.000 27.420,14.562 29.440,2.781 20.881,-5.562 32.710,-7.281" fill="#d8ec00" stroke="#333333" stroke-width="1" vector-effect="non-scaling-stroke"/></g><g xmlns="http://www.w3.org/2000/svg" transform="rotate(60, 0, 0)"><circle cx="246" cy="0" r="46" fill="#ff6b6b" stroke="#333333" stroke-width="1" vector-effect="non-scaling-stroke"/><path d="M 83.000,0 Q 98.000,10.000 113.000,0 Q 98.000,-10.000 83.000,0 Z" fill="#ca2e23" stroke="#333333" stroke-width="1" vector-effect="non-scaling-stroke"/><circle cx="199" cy="0" r="35" fill="#ffe66d" stroke="#333333" stroke-width="1" vector-effect="non-scaling-stroke"/><polygon points="170.000,-20.000 189.021,-6.180 181.756,16.180 158.244,16.180 150.979,-6.180" fill="#45b7d1" stroke="#333333" stroke-width="1" vector-effect="non-scaling-stroke"/><polygon points="38.000,-18.000 43.290,-7.281 55.119,-5.562 46.560,2.781 48.580,14.562 38.000,9.000 27.420,14.562 29.440,2.781 20.881,-5.562 32.710,-7.281" fill="#d8ec00" stroke="#333333" stroke-width="1" vector-effect="non-scaling-stroke"/></g><g xmlns="http://www.w3.org/2000/svg" transform="rotate(90, 0, 0)"><circle cx="246" cy="0" r="46" fill="#ff6b6b" stroke="#333333" stroke-width="1" vector-effect="non-scaling-stroke"/><path d="M 83.000,0 Q 98.000,10.000 113.000,0 Q 98.000,-10.000 83.000,0 Z" fill="#ca2e23" stroke="#333333" stroke-width="1" vector-effect="non-scaling-stroke"/><circle cx="199" cy="0" r="35" fill="#ffe66d" stroke="#333333" stroke-width="1" vector-effect="non-scaling-stroke"/><polygon points="170.000,-20.000 189.021,-6.180 181.756,16.180 158.244,16.180 150.979,-6.180" fill="#45b7d1" stroke="#333333" stroke-width="1" vector-effect="non-scaling-stroke"/><polygon points="38.000,-18.000 43.290,-7.281 55.119,-5.562 46.560,2.781 48.580,14.562 38.000,9.000 27.420,14.562 29.440,2.781 20.881,-5.562 32.710,-7.281" fill="#d8ec00" stroke="#333333" stroke-width="1" vector-effect="non-scaling-stroke"/></g><g xmlns="http://www.w3.org/2000/svg" transform="rotate(120, 0, 0)"><circle cx="246" cy="0" r="46" fill="#ff6b6b" stroke="#333333" stroke-width="1" vector-effect="non-scaling-stroke"/><path d="M 83.000,0 Q 98.000,10.000 113.000,0 Q 98.000,-10.000 83.000,0 Z" fill="#ca2e23" stroke="#333333" stroke-width="1" vector-effect="non-scaling-stroke"/><circle cx="199" cy="0" r="35" fill="#ffe66d" stroke="#333333" stroke-width="1" vector-effect="non-scaling-stroke"/><polygon points="170.000,-20.000 189.021,-6.180 181.756,16.180 158.244,16.180 150.979,-6.180" fill="#45b7d1" stroke="#333333" stroke-width="1" vector-effect="non-scaling-stroke"/><polygon points="38.000,-18.000 43.290,-7.281 55.119,-5.562 46.560,2.781 48.580,14.562 38.000,9.000 27.420,14.562 29.440,2.781 20.881,-5.562 32.710,-7.281" fill="#d8ec00" stroke="#333333" stroke-width="1" vector-effect="non-scaling-stroke"/></g><g xmlns="http://www.w3.org/2000/svg" transform="rotate(150, 0, 0)"><circle cx="246" cy="0" r="46" fill="#ff6b6b" stroke="#333333" stroke-width="1" vector-effect="non-scaling-stroke"/><path d="M 83.000,0 Q 98.000,10.000 113.000,0 Q 98.000,-10.000 83.000,0 Z" fill="#ca2e23" stroke="#333333" stroke-width="1" vector-effect="non-scaling-stroke"/><circle cx="199" cy="0" r="35" fill="#ffe66d" stroke="#333333" stroke-width="1" vector-effect="non-scaling-stroke"/><polygon points="170.000,-20.000 189.021,-6.180 181.756,16.180 158.244,16.180 150.979,-6.180" fill="#45b7d1" stroke="#333333" stroke-width="1" vector-effect="non-scaling-stroke"/><polygon points="38.000,-18.000 43.290,-7.281 55.119,-5.562 46.560,2.781 48.580,14.562 38.000,9.000 27.420,14.562 29.440,2.781 20.881,-5.562 32.710,-7.281" fill="#d8ec00" stroke="#333333" stroke-width="1" vector-effect="non-scaling-stroke"/></g><g xmlns="http://www.w3.org/2000/svg" transform="rotate(180, 0, 0)"><circle cx="246" cy="0" r="46" fill="#ff6b6b" stroke="#333333" stroke-width="1" vector-effect="non-scaling-stroke"/><path d="M 83.000,0 Q 98.000,10.000 113.000,0 Q 98.000,-10.000 83.000,0 Z" fill="#ca2e23" stroke="#333333" stroke-width="1" vector-effect="non-scaling-stroke"/><circle cx="199" cy="0" r="35" fill="#ffe66d" stroke="#333333" stroke-width="1" vector-effect="non-scaling-stroke"/><polygon points="170.000,-20.000 189.021,-6.180 181.756,16.180 158.244,16.180 150.979,-6.180" fill="#45b7d1" stroke="#333333" stroke-width="1" vector-effect="non-scaling-stroke"/><polygon points="38.000,-18.000 43.290,-7.281 55.119,-5.562 46.560,2.781 48.580,14.562 38.000,9.000 27.420,14.562 29.440,2.781 20.881,-5.562 32.710,-7.281" fill="#d8ec00" stroke="#333333" stroke-width="1" vector-effect="non-scaling-stroke"/></g><g xmlns="http://www.w3.org/2000/svg" transform="rotate(210, 0, 0)"><circle cx="246" cy="0" r="46" fill="#ff6b6b" stroke="#333333" stroke-width="1" vector-effect="non-scaling-stroke"/><path d="M 83.000,0 Q 98.000,10.000 113.000,0 Q 98.000,-10.000 83.000,0 Z" fill="#ca2e23" stroke="#333333" stroke-width="1" vector-effect="non-scaling-stroke"/><circle cx="199" cy="0" r="35" fill="#ffe66d" stroke="#333333" stroke-width="1" vector-effect="non-scaling-stroke"/><polygon points="170.000,-20.000 189.021,-6.180 181.756,16.180 158.244,16.180 150.979,-6.180" fill="#45b7d1" stroke="#333333" stroke-width="1" vector-effect="non-scaling-stroke"/><polygon points="38.000,-18.000 43.290,-7.281 55.119,-5.562 46.560,2.781 48.580,14.562 38.000,9.000 27.420,14.562 29.440,2.781 20.881,-5.562 32.710,-7.281" fill="#d8ec00" stroke="#333333" stroke-width="1" vector-effect="non-scaling-stroke"/></g><g xmlns="http://www.w3.org/2000/svg" transform="rotate(240, 0, 0)"><circle cx="246" cy="0" r="46" fill="#ff6b6b" stroke="#333333" stroke-width="1" vector-effect="non-scaling-stroke"/><path d="M 83.000,0 Q 98.000,10.000 113.000,0 Q 98.000,-10.000 83.000,0 Z" fill="#ca2e23" stroke="#333333" stroke-width="1" vector-effect="non-scaling-stroke"/><circle cx="199" cy="0" r="35" fill="#ffe66d" stroke="#333333" stroke-width="1" vector-effect="non-scaling-stroke"/><polygon points="170.000,-20.000 189.021,-6.180 181.756,16.180 158.244,16.180 150.979,-6.180" fill="#45b7d1" stroke="#333333" stroke-width="1" vector-effect="non-scaling-stroke"/><polygon points="38.000,-18.000 43.290,-7.281 55.119,-5.562 46.560,2.781 48.580,14.562 38.000,9.000 27.420,14.562 29.440,2.781 20.881,-5.562 32.710,-7.281" fill="#d8ec00" stroke="#333333" stroke-width="1" vector-effect="non-scaling-stroke"/></g><g xmlns="http://www.w3.org/2000/svg" transform="rotate(270, 0, 0)"><circle cx="246" cy="0" r="46" fill="#ff6b6b" stroke="#333333" stroke-width="1" vector-effect="non-scaling-stroke"/><path d="M 83.000,0 Q 98.000,10.000 113.000,0 Q 98.000,-10.000 83.000,0 Z" fill="#ca2e23" stroke="#333333" stroke-width="1" vector-effect="non-scaling-stroke"/><circle cx="199" cy="0" r="35" fill="#ffe66d" stroke="#333333" stroke-width="1" vector-effect="non-scaling-stroke"/><polygon points="170.000,-20.000 189.021,-6.180 181.756,16.180 158.244,16.180 150.979,-6.180" fill="#45b7d1" stroke="#333333" stroke-width="1" vector-effect="non-scaling-stroke"/><polygon points="38.000,-18.000 43.290,-7.281 55.119,-5.562 46.560,2.781 48.580,14.562 38.000,9.000 27.420,14.562 29.440,2.781 20.881,-5.562 32.710,-7.281" fill="#d8ec00" stroke="#333333" stroke-width="1" vector-effect="non-scaling-stroke"/></g><g xmlns="http://www.w3.org/2000/svg" transform="rotate(300, 0, 0)"><circle cx="246" cy="0" r="46" fill="#ff6b6b" stroke="#333333" stroke-width="1" vector-effect="non-scaling-stroke"/><path d="M 83.000,0 Q 98.000,10.000 113.000,0 Q 98.000,-10.000 83.000,0 Z" fill="#ca2e23" stroke="#333333" stroke-width="1" vector-effect="non-scaling-stroke"/><circle cx="199" cy="0" r="35" fill="#ffe66d" stroke="#333333" stroke-width="1" vector-effect="non-scaling-stroke"/><polygon points="170.000,-20.000 189.021,-6.180 181.756,16.180 158.244,16.180 150.979,-6.180" fill="#45b7d1" stroke="#333333" stroke-width="1" vector-effect="non-scaling-stroke"/><polygon points="38.000,-18.000 43.290,-7.281 55.119,-5.562 46.560,2.781 48.580,14.562 38.000,9.000 27.420,14.562 29.440,2.781 20.881,-5.562 32.710,-7.281" fill="#d8ec00" stroke="#333333" stroke-width="1" vector-effect="non-scaling-stroke"/></g><g xmlns="http://www.w3.org/2000/svg" transform="rotate(330, 0, 0)"><circle cx="246" cy="0" r="46" fill="#ff6b6b" stroke="#333333" stroke-width="1" vector-effect="non-scaling-stroke"/><path d="M 83.000,0 Q 98.000,10.000 113.000,0 Q 98.000,-10.000 83.000,0 Z" fill="#ca2e23" stroke="#333333" stroke-width="1" vector-effect="non-scaling-stroke"/><circle cx="199" cy="0" r="35" fill="#ffe66d" stroke="#333333" stroke-width="1" vector-effect="non-scaling-stroke"/><polygon points="170.000,-20.000 189.021,-6.180 181.756,16.180 158.244,16.180 150.979,-6.180" fill="#45b7d1" stroke="#333333" stroke-width="1" vector-effect="non-scaling-stroke"/><polygon points="38.000,-18.000 43.290,-7.281 55.119,-5.562 46.560,2.781 48.580,14.562 38.000,9.000 27.420,14.562 29.440,2.781 20.881,-5.562 32.710,-7.281" fill="#d8ec00" stroke="#333333" stroke-width="1" vector-effect="non-scaling-stroke"/></g>
    </g>
</svg>