<?xml version="1.0" encoding="UTF-8" standalone="no"?>
<!-- Created with Inkscape (http://www.inkscape.org/) -->
<svg xmlns:inkscape="http://www.inkscape.org/namespaces/inkscape" xmlns:rdf="http://www.w3.org/1999/02/22-rdf-syntax-ns#" xmlns="http://www.w3.org/2000/svg" xmlns:xlink="http://www.w3.org/1999/xlink" xmlns:ns1="http://sozi.baierouge.fr" xmlns:cc="http://creativecommons.org/ns#" xmlns:sodipodi="http://sodipodi.sourceforge.net/DTD/sodipodi-0.dtd" xmlns:dc="http://purl.org/dc/elements/1.1/" id="svg2" xml:space="preserve" viewBox="0 0 117.47 99.751" version="1.1" inkscape:version="0.91 r13725">
  <g id="g10" transform="matrix(1.25 0 0 -1.25 0 99.751)">
    <g id="g12">
      <path id="path14" style="fill-rule:evenodd;fill:#898074" d="m68.762 68.879-0.403 2.121c0.215-0.691 0.375-1.547 0.481-2.559l-0.078 0.438zm19.277-17.758c0.055-2.398 0.039-4.441-0.039-6.121l-0.078 1.723c0.078 1.89 0.117 3.359 0.117 4.398zm-6.16-2.121 0.199 0.922 0.801 3.598-1.481-7.719 0.481 3.199zm7.281-6.48-0.082 0.121c0.027-0.028 0.067-0.078 0.121-0.161l-0.039 0.04zm-73.16 3.839v0.321l0.16 0.761 0.641 1.481v-0.281c0.133-4.508 0.199-8.188 0.199-11.039l-0.039 0.839c0 0.293-0.121 1.493-0.359 3.598-0.27 2.242-0.469 3.684-0.602 4.32zm13.879 4-0.078-2.199c0-0.105 0.011-0.226 0.039-0.359 0-0.961-0.172-3.68-0.52-8.16-0.425-5.762-0.64-8.762-0.64-9l-0.559 1.082-1.402-5.801-0.481 0.078-0.679 0.16c0.16 5.922 0.242 13.856 0.242 23.801 1.574-0.453 2.933-0.32 4.078 0.398zm35.441 20.364-0.043-4.641-0.078 6.68 0.121-2.039zm15.442-37.043-0.082 0.48c-0.106 0.774-0.2 1.227-0.282 1.363l-0.039 0.04c0.028 0.316 0.094 0.226 0.2-0.282 0.054-0.265 0.093-0.558 0.121-0.879l0.039-0.203 0.043-0.519zm1.879 24.359-0.563-8.117v2.879l0.563 5.238zm1.16-43.957h-0.039l-0.082 0.957 0.121-0.957zm-26.563 3.641h-0.039l0.082 1.757-0.043-1.757z" inkscape:connector-curvature="0"/>
      <path id="path16" style="fill-rule:evenodd;fill:#726a60" d="m65.922 72.723 0.117-11.723c-0.16 3.227-0.398 6.469-0.719 9.723l-0.121 2.039 0.723-0.039zm6.879-14.203c-0.082-3.387-0.242-4.719-0.481-4-0.347-2.797-0.855-6.614-1.519-11.438l0.199 16.559 1.801-1.121zm8.679-0.641-0.082-12.078c-0.476-4.293-0.718-8.094-0.718-11.399-0.028 0.321-0.067 0.614-0.118 0.879-0.109 0.508-0.175 0.598-0.203 0.282l0.043-0.04c0.078-0.136 0.172-0.589 0.278-1.363 0.082-3.89 0.308-10.426 0.683-19.597l-2.922 0.398-0.121 4.32c0.055-0.187 0.149-0.426 0.282-0.718l0.281 0.398 0.281 6.719c0 0.269-0.121 1.347-0.363 3.242-0.266 1.891-0.399 2.973-0.399 3.238 0 0.348 0.149 2.574 0.442 6.68 0.265 4.137 0.398 7.762 0.398 10.883 0 3.199-0.039 5.84-0.117 7.918l2.355 0.238zm0.399-8.879l0.199 3.801v-2.879l0.563 8.117v0.082l0.558 0.121 0.121-2.363-0.441-2.359-0.801-3.598-0.199-0.922zm6.16 2.121c0-1.039-0.039-2.508-0.117-4.398l0.078-1.723 0.402-1.398 0.68-0.961 0.078-0.121c0-7.172 0.028-13.344 0.082-18.52 0-0.691-0.066-2.078-0.199-4.16-0.133-2.531-0.293-4.305-0.481-5.317l0.239-1.484-2.68 0.563c0.027 2.16 0.094 3.574 0.199 4.238 0.055 0.269 0.403 1.801 1.043 4.601l0.239-1.839c0.078 3.011 0.16 14.199 0.238 33.558l0.203-1.68v-1.359h-0.004zm3-39.719c0.133 7.864 0.199 15.852 0.199 23.957 0.321 0.774 0.508 1.653 0.563 2.641 0.105-1.598 0.16-3.211 0.16-4.84 0-0.265-0.055-2.613-0.16-7.039-0.133-5.226-0.199-9.961-0.199-14.199v-0.043l-0.563-0.477zm-35.68 6.68-5.718 0.641c0.082 0.957 0.238 1.89 0.48 2.8 0.238 0.879 0.371 1.438 0.399 1.68 0.16 1.332 0.242 3.492 0.242 6.477 0 2.215-0.067 6.894-0.2 14.043l-0.042 1.238c0 0.934 0.226 2.172 0.679 3.719l0.84 0.601 0.363 0.199c-0.027-4.558 0.399-10.332 1.278-17.32 1.066-8.773 1.629-13.465 1.679-14.078z" inkscape:connector-curvature="0"/>
      <path id="path18" style="fill-rule:evenodd;fill:#a1978b" d="m67.719 15.039c-1.492 0.109-2.692 0.309-3.598 0.602l-0.402 0.16c0.215 2.64 0.547 6.094 1 10.359 0.269 2.586 0.441 5.133 0.519 7.641 0.082-0.055 0.094 10.707 0.039 32.281l0.043 4.641c0.321-3.254 0.559-6.496 0.719-9.723l-0.117 11.723c0.664 0 1.238-0.176 1.719-0.524 0.48-0.32 0.718-0.719 0.718-1.199l0.399-2.121c-0.024-1.465-0.25-8.024-0.68-19.68-0.426-11.226-0.64-17.453-0.64-18.679 0-1.731 0.093-3.985 0.281-6.758 0.133-2.133 0.133-5.039 0-8.723zm15.601 40.84-0.121 2.363c1.149 0 2.133-0.269 2.961-0.801 0.828-0.507 1.238-1.132 1.238-1.878 0-1.364 0.082-5.309 0.243-11.84 0.082-6.856-0.133-12.629-0.641-17.321-1.84 19.68-2.961 30.094-3.359 31.239l-0.321-1.762zm-6.8 1.801c0-0.614-0.172-3.746-0.52-9.399-0.348-5.84-0.625-10.082-0.84-12.718-0.082 0.718-0.199 1.089-0.359 1.117-0.188 0.054-0.309 0.308-0.36 0.761-0.32 1.786-0.613 8.707-0.882 20.758 0.375-0.133 0.933-0.254 1.679-0.359 0.668-0.106 1.094-0.16 1.282-0.16zm-17.801-40.278-1.481 0.321 0.043 1.757 0.117 4.883 0.524 5.68c-0.16-0.961-0.309-2.027-0.442-3.203-0.402 2.64-0.746 5.148-1.042 7.523-0.559 4.586-0.84 10.133-0.84 16.637l0.203 0.363c0.238 0.559 0.387 1.2 0.437 1.918l0.481 5.641c0.054 0.613 0.176 2.891 0.359 6.84 0.11 2.238 0.254 3.691 0.442 4.359v0.039l0.519 1.121 0.039 0.16v-0.039c0.027-1.148 0.309-3.656 0.844-7.523 0.531-3.758 0.797-7.52 0.797-11.277 0-9.016-0.16-15.243-0.481-18.68-0.078-1.043-0.332-2.375-0.758-4l-0.199 0.758c0.266-6.852 0.41-11.278 0.438-13.278zm22.883-2.882c0 5.043-0.137 9.746-0.403 14.121l-0.437 5.039-0.043 0.519c0.109-0.586 0.558-3.32 1.359-8.199 0.91-5.465 1.414-8.879 1.52-10.238l0.082-0.723 0.082-0.957-1.082 0.199-1.078 0.239zm-22.641 2.839 0.68 3.161v-3.36l-0.68 0.199z" inkscape:connector-curvature="0"/>
      <path id="path20" style="fill-rule:evenodd;fill:#8b8178" d="m76.52 57.68c0.96-0.078 1.828-0.094 2.601-0.039 0.078-2.078 0.117-4.719 0.117-7.918 0-3.121-0.133-6.75-0.398-10.883-0.293-4.106-0.442-6.332-0.442-6.68 0-0.265 0.137-1.347 0.403-3.238 0.238-1.895 0.359-2.977 0.359-3.242l-0.281-6.719-0.277-0.398c-0.137 0.292-0.227 0.531-0.282 0.718l0.118-4.32c-5.547 0-9.118 0.027-10.719 0.078 0.133 3.684 0.133 6.59 0 8.723-0.184 2.773-0.281 5.027-0.281 6.758 0 1.226 0.214 7.453 0.64 18.679 0.43 11.656 0.656 18.215 0.684 19.68l0.078-0.438c0.027-0.265 0-1.496-0.078-3.679 0-2 0.746-3.707 2.238-5.121l-0.199-16.559c0.664 4.824 1.172 8.641 1.519 11.438 0.239-0.719 0.399 0.613 0.481 4l0.758-0.321c0.269-12.051 0.562-18.972 0.882-20.758 0.051-0.453 0.172-0.707 0.36-0.761 0.16-0.024 0.277-0.399 0.359-1.117 0.215 2.64 0.492 6.878 0.84 12.718 0.348 5.653 0.52 8.785 0.52 9.399zm6.8-1.801 0.321 1.762c0.398-1.145 1.519-11.559 3.359-31.239 0.508 4.692 0.719 10.465 0.641 17.321-0.161 6.531-0.243 10.476-0.243 11.84l0.442-1.403c-0.082-19.359-0.16-30.547-0.242-33.558l-0.239 1.839c-0.64-2.8-0.988-4.332-1.039-4.601-0.109-0.664-0.175-2.078-0.199-4.238l-2 0.398-0.32 0.082-0.121 0.957-0.082 0.723c-0.106 1.359-0.614 4.773-1.52 10.238-0.801 4.879-1.25 7.613-1.359 8.199l-0.039 0.203c0 3.305 0.242 7.106 0.718 11.399l1.481 7.719 0.441 2.359zm7.918-20.52 0.082 5.481c0.293-0.293 0.774-0.57 1.442-0.84 0.426-0.187 0.718-0.547 0.879-1.078 0.347-1.281 0.425-6.082 0.238-14.402v-1.399c0-3.199-0.051-5.387-0.156-6.558l-0.282-1.442c-0.293-0.961-0.707-1.84-1.242-2.641l-0.597-0.601v0.043c0 4.238 0.066 8.973 0.199 14.199 0.105 4.426 0.16 6.774 0.16 7.039 0 1.629-0.055 3.242-0.16 4.84-0.055-0.984-0.242-1.867-0.563-2.641zm-31.597-18.199v3.36l-0.68-3.161-0.242 0.043c-0.028 2-0.172 6.426-0.442 13.278l0.203-0.758c0.426 1.625 0.68 2.957 0.758 4 0.321 3.441 0.481 9.668 0.481 18.68 0 3.761-0.266 7.519-0.797 11.281-0.535 3.863-0.817 6.371-0.844 7.519v0.039l0.043 0.082c0.481 0.372 1.691 0.692 3.641 0.957 1.465 0.188 2.613 0.282 3.437 0.282l0.082-6.68c0.051-21.574 0.039-32.336-0.043-32.281-0.078-2.508-0.25-5.051-0.515-7.641-0.457-4.265-0.789-7.719-1-10.359l-4.082 1.359zm21.121 16.52 0.437-5.039c0.266-4.375 0.403-9.078 0.403-14.118l-0.243 0.04c-0.371 9.171-0.597 15.707-0.679 19.597l0.082-0.48zm-23.364-9.321 0.082 2.481c0.133 1.176 0.282 2.242 0.442 3.199l-0.524-5.68z" inkscape:connector-curvature="0"/>
      <path id="path22" style="fill-rule:evenodd;fill:#625952" d="m82.078 52.801-0.199-3.801l-0.481-3.199 0.082 12.078 1.161 0.242v-0.082l-0.563-5.238zm9.242-11.961-0.082-5.481c0-8.105-0.066-16.093-0.199-23.957-0.586-0.293-1.281-0.601-2.078-0.922 0.957 0.536 1.625 1.122 2 1.762-0.109 0.078-0.469 0.227-1.082 0.438-0.559 0.215-0.918 0.336-1.082 0.359l-0.238 1.484c0.187 1.012 0.347 2.786 0.48 5.317 0.133 2.082 0.199 3.469 0.199 4.16-0.05 5.176-0.078 11.348-0.078 18.52l0.039-0.04c0.051-0.027 0.278-0.214 0.68-0.558 0.48-0.402 0.961-0.762 1.441-1.082zm-33.84-14-0.082-2.481-0.117-4.879-0.082-1.757-1.84 0.355c-0.05 0.617-0.613 5.309-1.679 14.082-0.879 6.988-1.305 12.762-1.282 17.32l1.801 0.559c0.535 0.215 0.961 0.457 1.281 0.723l0.122 0.238c0-6.504 0.277-12.051 0.839-16.641 0.293-2.371 0.637-4.879 1.039-7.519z" inkscape:connector-curvature="0"/>
      <path id="path24" style="fill-rule:evenodd;fill:#7c7367" d="m30.879 17.68c0.586 0.32 1.121 0.656 1.601 1l0.442 0.32c13.41-1.52 23.812-2.641 31.199-3.359 0.906-0.293 2.106-0.493 3.598-0.602 1.601-0.051 5.176-0.078 10.719-0.078l2.921-0.398 0.239-0.043 1.082-0.239-1.2 0.239c1.891-0.774 5.051-1.532 9.481-2.282-0.375-0.636-1.039-1.226-2-1.758-1.336-0.718-3.414-1.308-6.242-1.757-2.16-0.348-3.813-0.524-4.957-0.524-4.27 0-9.961-1.066-17.082-3.199-7.918-2.371-12.348-3.613-13.282-3.719-6.851-0.851-11.359-1.187-13.519-1-5.52 0.426-10.414 0.641-14.68 0.641-0.668 0-2.773-0.16-6.32-0.481-3.52-0.293-6.039-0.441-7.559-0.441l-5.242 0.078c-0.051-0.078-0.078 0.149-0.078 0.684 0 1.25 1.961 2.707 5.879 4.359 3.894 1.652 5.84 3.332 5.84 5.039 0 1.574-0.321 2.668-0.961 3.281-0.133 0.106-1.133 0.68-3 1.719 2.215-0.426 3.883-0.68 5-0.758 2.855-0.882 6.762-1.32 11.722-1.32 0.586 0 2.387 0.453 5.399 1.359 3.148 0.934 5.105 1.438 5.879 1.52l-0.36 0.519-0.558 0.321-3.961 0.879zm13.281 5.32-0.801-4c-0.851 0-1.652 0.039-2.398 0.121l-0.883 0.16c-0.023 7.067-0.023 12.731 0 17 0.055 7.946 0.641 13.282 1.762 16 0.988 2.399 1.508 6.824 1.558 13.278-0.16 7.097-0.226 11.789-0.199 14.082 1.762-0.426 2.641-2.012 2.641-4.762-0.028-3.652 0.172-5.879 0.601-6.68 0-0.051-0.066-1.144-0.203-3.277 0-0.535 0.094-2.906 0.282-7.121l0.082-5.121c-0.293-0.907-0.961-2.012-2-3.321-0.774-0.957-1.161-2.132-1.161-3.519 0-0.051 0.133-3.426 0.399-10.117 0.238-7.016 0.348-11.254 0.32-12.723zm12.559 35.922-0.481 2.519 0.801 8.801v0.117l0.359-0.199 0.122-0.039c-0.188-0.668-0.332-2.121-0.442-4.359-0.183-3.949-0.305-6.227-0.359-6.84zm10.761-48.402-0.921 0.121c0.453-0.321 1.242-0.614 2.363-0.879 1.172-0.293 2.105-0.387 2.797-0.282-1.84 0.508-3.254 0.856-4.239 1.04zm4.442-0.879c0.238-0.161 0.355-0.266 0.355-0.321l2.321-0.039c0.961 0 1.867 0.199 2.722 0.598l-4.402 0.402-1.598-0.082c0.133-0.16 0.332-0.344 0.602-0.558zm11.84 4.441h0.039l0.32-0.082-0.359 0.082zm-27.961 37.277c0.027 2.297 0.078 4.469 0.16 6.52l0.277-4.598c-0.05-0.718-0.199-1.359-0.437-1.922zm-8.801-10.32 0.559-8.199c-0.051-0.211-0.891-2.426-2.52-6.641 0.106 3.176 0.359 5.817 0.762 7.922 0.64 3.332 1.039 5.641 1.199 6.918zm-41.719-37.078c-1.547-0.16-2.761-0.719-3.64-1.68 0.054-0.082 0.171-0.254 0.359-0.519 0.133-0.16 0.199-0.282 0.199-0.36l1.723-0.082 1.117 0.2c0.856 0.402 1.613 1.187 2.281 2.359-0.586 0.109-1.265 0.137-2.039 0.082zm5.598 0.32c0.082-0.054 0.266-0.148 0.562-0.281 0.184-0.078 0.278-0.145 0.278-0.199l3.203 0.078c0 0.883-0.684 1.336-2.043 1.363-0.801-0.242-1.465-0.562-2-0.961zm1.16 0.84c0.188 0.051 0.359 0.094 0.52 0.117-0.211 0-0.426-0.011-0.637-0.039-0.375 0.11-0.734 0.176-1.082 0.199-0.371 0.028-0.746-0.05-1.121-0.238l0.883-0.121 1.519 0.039-0.082 0.043zm0.402 3.52c0.184-0.106 0.692-0.321 1.52-0.641 0.824-0.293 1.32-0.453 1.48-0.48 0.985-0.028 1.438-0.012 1.36 0.043-1.227 0.503-2.188 0.839-2.879 1-0.481 0.105-0.977 0.132-1.481 0.078zm9.637-5.321-0.758 0.082c0.614-0.613 2.215-0.855 4.801-0.722-1.84 0.32-3.187 0.535-4.043 0.64zm4.641 1.762-1.438-0.082 0.278-0.32c0.187-0.106 0.519-0.211 1-0.317 0.507-0.109 0.949-0.16 1.32-0.16 5.176 0 10.055 0.16 14.641 0.477l-15.801 0.402zm-1.641 4.277c2.695-0.398 4.668-0.597 5.922-0.597 1.039 0 2.039 0.16 3 0.48l-0.199 0.637c-0.774 0.644-1.723 0.961-2.84 0.961-2.453 0-4.414-0.492-5.883-1.481zm18.922 8.161c-1.492 0.054-2.547-0.04-3.16-0.282-0.348-0.293-0.574-0.465-0.68-0.515 0.078-0.348 0.508-0.711 1.281-1.082 0.879 0.293 1.438 0.48 1.68 0.558 0.133 0.082 0.734 0.508 1.801 1.281l-0.922 0.04zm-8.602-7.161 0.922-0.281c1.094-0.156 1.825-0.223 2.2-0.199l2 1.601-1.321-0.199c-0.879-0.133-2.144-0.441-3.801-0.922zm2.723 3.84c0.266 0.028 0.664 0.188 1.199 0.481-1.066 0.535-1.867 0.8-2.398 0.8-0.563 0-0.934-0.265-1.121-0.8 1.011-0.371 1.785-0.532 2.32-0.481zm11.117-6.16c0.028-0.293 0.375-0.559 1.043-0.797 0.614-0.215 1.254-0.32 1.918-0.32 0.348 0 0.789 0.078 1.321 0.238 0.535 0.16 0.918 0.32 1.16 0.481 0 0.132-0.094 0.375-0.282 0.722-0.187 0.344-0.277 0.586-0.277 0.719-2.695-0.082-4.121-0.121-4.281-0.121l0.281 0.519c-4.828-0.05-8.707-0.199-11.641-0.441l0.36-0.359c0.586-0.481 1.414-0.813 2.48-1 1.039-0.184 2.575-0.278 4.602-0.278 1.973 0 3.078 0.211 3.316 0.637zm-3.117-4.16-10.801-0.399c4.774-0.054 8.375 0.083 10.801 0.399zm8.399 8.801c-0.934 0.48-1.708 0.695-2.321 0.64-0.586-0.16-1.027-0.254-1.32-0.281 0.215-0.238 0.469-0.437 0.762-0.598-0.586-0.242-0.961-0.535-1.121-0.878 4.32-0.454 7.269-0.684 8.839-0.684 0.375 0 1.282 0.082 2.719 0.242 1.363 0.188 2.176 0.305 2.442 0.359-1.918 1.094-4.012 1.641-6.282 1.641-1.199 0-2.586-0.066-4.16-0.199l0.442-0.242zm-5.559 1.961c0-0.348 0.051-0.641 0.16-0.879 0.211-0.16 0.32-0.282 0.32-0.36 1.012-0.082 1.774 0.078 2.282 0.477-0.43 0.215-0.828 0.457-1.203 0.723-0.133 0.078-0.348 0.121-0.641 0.121l-0.918-0.082zm12.359-5.961h3.2-3.2zm1.602-1.2 6.398 0.399c-2.879 0.137-5.011 0-6.398-0.399z" inkscape:connector-curvature="0"/>
      <path id="path26" style="fill-rule:evenodd;fill:#6d655a" d="m67.48 10.52c0.985-0.184 2.399-0.532 4.243-1.04-0.696-0.105-1.629-0.015-2.801 0.282-1.121 0.265-1.91 0.558-2.36 0.879l0.918-0.121zm-62.199-6.559c0.774 0.051 1.453 0.027 2.039-0.082-0.668-1.172-1.425-1.957-2.281-2.359l-1.117-0.2-1.723 0.082c0 0.078-0.066 0.2-0.199 0.36-0.188 0.265-0.305 0.437-0.359 0.519 0.879 0.961 2.093 1.52 3.64 1.68zm6.758 1.16-0.117 0.078c0.211 0.028 0.426 0.043 0.637 0.043-0.161-0.027-0.332-0.066-0.52-0.121zm-1.16-0.84c0.535 0.399 1.199 0.719 2 0.961 1.359-0.027 2.043-0.48 2.043-1.363l-3.203-0.078c0 0.054-0.094 0.121-0.278 0.199-0.296 0.133-0.48 0.227-0.562 0.281zm1.883 10.121c3.332-0.109 6.211 0.051 8.636 0.477 1.309 0.242 2.762 0.59 4.364 1.043l0.117 0.039c1.816 0.48 3.48 1.055 5 1.719l3.961-0.879 0.558-0.321 0.364-0.519c-0.774-0.082-2.735-0.586-5.883-1.52-3.012-0.906-4.813-1.359-5.399-1.359-4.96 0-8.867 0.438-11.718 1.32zm9.316-11.082c0.856-0.105 2.203-0.32 4.043-0.64-2.586-0.133-4.187 0.109-4.801 0.718l0.758-0.078zm3 6.039c1.469 0.989 3.43 1.481 5.883 1.481 1.117 0 2.066-0.317 2.84-0.961l0.199-0.637c-0.961-0.32-1.961-0.48-3-0.48-1.254 0-3.227 0.199-5.922 0.597zm18.922 8.161 0.922-0.04c-1.067-0.773-1.668-1.199-1.801-1.281-0.242-0.078-0.801-0.265-1.68-0.558-0.773 0.371-1.203 0.734-1.281 1.082 0.106 0.05 0.332 0.222 0.68 0.515 0.613 0.242 1.668 0.336 3.16 0.282zm5.84-8.559c-0.16 0-0.293-0.094-0.399-0.281-0.132-0.16-0.203-0.371-0.203-0.641-0.238-0.426-1.343-0.641-3.316-0.641-2.027 0-3.563 0.094-4.602 0.282-1.066 0.187-1.894 0.519-2.48 1l-0.36 0.359c2.934 0.242 6.813 0.387 11.641 0.441l-0.281-0.519zm-3.719-5.082c-2.426-0.316-6.027-0.449-10.801-0.399l10.801 0.399zm5.52 8.562c0.961-0.242 2.187-0.293 3.679-0.16l-0.8 0.399-0.442 0.242c1.574 0.133 2.961 0.199 4.16 0.199 2.27 0 4.364-0.547 6.282-1.641-0.266-0.054-1.079-0.171-2.442-0.359-1.437-0.16-2.344-0.242-2.719-0.242-1.57 0-4.519 0.226-8.839 0.684 0.16 0.343 0.535 0.636 1.121 0.878zm-2.68 2.2 0.918 0.082c0.293 0 0.508-0.043 0.641-0.121 0.375-0.266 0.773-0.508 1.199-0.719-0.504-0.403-1.266-0.563-2.278-0.481 0 0.078-0.109 0.2-0.32 0.36-0.109 0.238-0.16 0.531-0.16 0.879z" inkscape:connector-curvature="0"/>
      <path id="path28" style="fill-rule:evenodd;fill:#8b8072" d="m71.922 9.641c-0.27 0.214-0.469 0.398-0.602 0.558l1.602 0.082 4.398-0.402c-0.855-0.399-1.761-0.598-2.718-0.598l-2.321 0.039c0 0.055-0.121 0.16-0.359 0.321zm-59.481-1c0.504 0.054 1 0.027 1.481-0.078 0.691-0.161 1.652-0.497 2.879-1 0.078-0.055-0.375-0.071-1.36-0.043-0.16 0.027-0.652 0.187-1.48 0.48-0.828 0.32-1.336 0.535-1.52 0.641zm-0.402-3.52 0.082-0.043-1.519-0.039-0.883 0.121c0.375 0.188 0.75 0.266 1.121 0.238 0.348-0.023 0.707-0.089 1.082-0.199l0.117-0.078zm14.68-0.039 15.801-0.402c-4.586-0.317-9.465-0.481-14.641-0.481-0.371 0-0.813 0.055-1.32 0.16-0.481 0.11-0.813 0.215-1 0.321l-0.278 0.32 1.438 0.082zm11.402 9.117c-0.535-0.051-1.309 0.11-2.32 0.481 0.187 0.535 0.558 0.8 1.121 0.8 0.531 0 1.332-0.265 2.398-0.8-0.535-0.293-0.933-0.453-1.199-0.481zm-2.723-3.84c1.657 0.481 2.922 0.789 3.801 0.922l1.321 0.199-2-1.601c-0.375-0.024-1.106 0.043-2.2 0.199l-0.922 0.281zm13.84-2.32c0 0.27 0.071 0.484 0.203 0.641 0.106 0.187 0.239 0.281 0.399 0.281s1.586 0.039 4.281 0.121c0-0.133 0.094-0.375 0.281-0.719 0.188-0.347 0.278-0.59 0.278-0.722-0.239-0.161-0.625-0.317-1.157-0.481-0.535-0.16-0.976-0.238-1.32-0.238-0.668 0-1.308 0.105-1.922 0.32-0.668 0.238-1.015 0.504-1.043 0.797zm5.282 4.641 0.8-0.399c-1.492-0.133-2.718-0.082-3.679 0.16-0.293 0.161-0.547 0.36-0.762 0.598 0.293 0.027 0.734 0.121 1.32 0.281 0.613 0.055 1.387-0.16 2.321-0.64zm8.402-5.2c1.383 0.399 3.516 0.536 6.398 0.399l-6.398-0.399z" inkscape:connector-curvature="0"/>
      <path id="path30" style="fill-rule:evenodd;fill:#b3aa9e" d="m29.879 50.359c0.668 0.563 1.148 1.082 1.441 1.563 0.215 0.426 0.426 0.933 0.641 1.519 0.824 2.454 1.332 7.122 1.519 14 0.188 6.239 0.708 10.012 1.559 11.321 0.055 0.027 0.574-2.574 1.563-7.801 0.21-1.172 0.32-2.055 0.32-2.641 0-0.933-0.16-1.734-0.481-2.398-0.668-1.442-1.015-2.199-1.043-2.281-1.011-2.879-1.519-8.36-1.519-16.442 0-1.172 0.293-2.613 0.883-4.32 0.586-1.68 0.879-3.316 0.879-4.918 0-3.867-0.442-9.785-1.321-17.762 1.868-0.238 3.785-0.547 5.758-0.918l0.883-0.16c0.746-0.082 1.547-0.121 2.398-0.121l6.282-0.277 5.718-0.641 1.84-0.359h0.039l1.481-0.321 0.242-0.043 0.68-0.199 4.078-1.359 0.402-0.16c-7.387 0.718-17.789 1.839-31.199 3.359 0.316 0.348 0.586 0.695 0.797 1.039 0 1.254-0.293 2.32-0.879 3.203-0.613 0.906-1.348 1.36-2.199 1.36 0 5.707-0.266 13.437-0.801 23.199-0.028 0.133-0.039 0.254-0.039 0.359l0.078 2.199zm-13.879-4c0.133-0.636 0.332-2.078 0.602-4.32 0.238-2.105 0.359-3.305 0.359-3.598l0.039-0.839c0 2.851-0.066 6.531-0.199 11.039v0.281l1.597 2.32c0.161 0.16 0.668 0.52 1.524 1.078 0.984 0.614 1.703 1 2.156 1.16h0.043c0 0.028 0.012 0.04 0.039 0.04-0.293-9.625-0.773-18.387-1.441-26.278l-0.36-0.043c-0.851-0.023-1.586-0.011-2.199 0.043l-2.398 0.078v5.602c0.16 0.32 0.277 1.027 0.359 2.117l-0.043 0.922c-0.133 4.48-0.199 7.508-0.199 9.078l0.121 1.32zm31.559-13.519-0.559 8.199c0.906 3.121 1.707 6.375 2.398 9.762 1.414 6.64 1.934 11.762 1.563 15.359h0.32c0.586-4.16 1.348-7.691 2.281-10.597 0.559-1.708 0.774-3.536 0.637-5.481v-0.043l-1.797-0.559-0.363-0.199-0.84-0.601c-0.453-1.547-0.679-2.785-0.679-3.719l0.039-1.238c0.132-7.149 0.203-11.828 0.203-14.043 0-2.985-0.082-5.145-0.242-6.481-1.387 7.387-2.188 11.27-2.399 11.641l-0.562-2zm38.562-19.238 2.68-0.563c0.16-0.023 0.519-0.144 1.078-0.359 0.613-0.211 0.976-0.36 1.082-0.438-4.426 0.746-7.586 1.504-9.481 2.281l1.2-0.242 1.082-0.199 0.359-0.082 2-0.398z" inkscape:connector-curvature="0"/>
      <path id="path32" style="fill-rule:evenodd;fill:#9b9286" d="m15.762 32.922v-5.602l-5.082 0.039c0 1.547 0.492 2.856 1.48 3.922 0.985 1.094 2.188 1.641 3.602 1.641zm0.238 13.758v-0.321l-0.121-1.32 0.121 1.641zm9.801 3.281c0-9.949-0.082-17.883-0.242-23.801-1.438 0.348-2.454 0.641-3.039 0.879-0.188 0.082-0.614 0.149-1.282 0.203h-0.519c0.668 7.891 1.148 16.653 1.441 26.278 0.535-0.344 1.145-1 1.84-1.957 0.559-0.829 1.16-1.364 1.801-1.602zm17.398 29.68c-0.027-2.293 0.039-6.985 0.199-14.078-0.05-6.458-0.57-10.883-1.558-13.282-1.121-2.718-1.707-8.054-1.762-16-0.023-4.265-0.023-9.933 0-17-1.973 0.375-3.89 0.68-5.758 0.918 0.879 7.977 1.321 13.895 1.321 17.762 0 1.602-0.293 3.238-0.879 4.918-0.59 1.707-0.883 3.148-0.883 4.32 0 8.082 0.508 13.563 1.519 16.442 0.028 0.082 0.375 0.839 1.043 2.281 0.321 0.664 0.481 1.465 0.481 2.398 0 0.586-0.11 1.469-0.32 2.641-0.989 5.227-1.508 7.828-1.563 7.801 0.266 0.183 0.707 0.398 1.32 0.64 0.696 0.266 1.227 0.399 1.602 0.399l5.238-0.16zm11-29.602v0.043c0.133 1.945-0.078 3.773-0.64 5.481-0.934 2.906-1.692 6.437-2.282 10.597 0.989 0 1.828 0.32 2.524 0.961 0.691 0.668 1.039 1.465 1.039 2.399l0.68-4.2-0.282 4.559c0.242 0.137 0.574 0.242 1 0.32 0.293 0.055 0.563 0.067 0.801 0.043l-0.801-8.801-0.718 3.879 0.441-7.441c-0.082-2.051-0.133-4.223-0.16-6.52l-0.199-0.359-0.122-0.238c-0.32-0.266-0.746-0.508-1.281-0.723zm3.321 20.082-0.122 0.039h0.122v-0.039zm-14.161-51.121l0.801 4 0.879 3.199c1.629 4.215 2.469 6.43 2.52 6.641l0.562 2c0.211-0.371 1.012-4.25 2.399-11.641-0.028-0.238-0.161-0.797-0.399-1.679-0.242-0.907-0.402-1.84-0.48-2.797l-6.282 0.277zm-12.718 5.602c-1.946 0.8-3.254 1.238-3.922 1.32l1.402 5.801 0.559-1.082c0 0.238 0.215 3.238 0.64 9 0.348 4.48 0.52 7.199 0.52 8.16 0.535-9.762 0.801-17.492 0.801-23.199z" inkscape:connector-curvature="0"/>
      <path id="path34" style="fill-rule:evenodd;fill:#635b52" d="m50.961 66.16c0.371-3.597-0.149-8.719-1.563-15.359-0.691-3.387-1.492-6.641-2.398-9.762-0.16-1.277-0.559-3.586-1.199-6.918-0.403-2.105-0.656-4.746-0.762-7.918l-0.879-3.203c0.028 1.469-0.082 5.707-0.32 12.723-0.266 6.691-0.399 10.066-0.399 10.117 0 1.387 0.387 2.562 1.161 3.519 1.039 1.309 1.703 2.414 2 3.321l-0.082 5.121c-0.188 4.215-0.282 6.586-0.282 7.121 0.133 2.133 0.2 3.226 0.2 3.277l1.402-1.359c0.668-0.266 1.398-0.492 2.199-0.68h0.922zm4.277 3.719 0.282-4.559-0.68 4.2 0.398 0.359zm1-8.438 0.481-2.519-0.481-5.641-0.277 4.598-0.441 7.441 0.718-3.879z" inkscape:connector-curvature="0"/>
      <path id="path36" style="fill-rule:evenodd;fill:#8b897f" d="m21.238 27.242c0.668-0.054 1.094-0.121 1.282-0.203 0.585-0.238 1.601-0.531 3.039-0.879l0.679-0.16c1.817-1.52 2.723-2.68 2.723-3.48 0-0.559-0.121-1-0.359-1.321-0.055-0.051-0.336-0.304-0.84-0.758l-11.563-0.441c-5.094-0.266-8.586-0.426-10.48-0.48l0.801 0.281c0.132 0.027 3.121 0.426 8.96 1.199 2.215 0.293 4.079 1.176 5.598 2.641l-0.598 1.839c0.028 0.293 0.122 0.629 0.282 1 0.16 0.348 0.316 0.602 0.476 0.762z" inkscape:connector-curvature="0"/>
      <path id="path38" style="fill-rule:evenodd;fill:#a7a499" d="m6.52 19.801c-0.559-0.028-1.051 0.133-1.481 0.48-0.453 0.375-0.691 0.828-0.719 1.36-0.054 0.535 0.121 1 0.52 1.398 0.375 0.43 0.855 0.641 1.441 0.641 0.211-0.051 0.547-0.024 1 0.082 0.426 0.105 0.785 0.238 1.078 0.398l2.84 0.84c-0.265-1.039-0.398-1.586-0.398-1.641 0.133-0.504 0.492-0.757 1.078-0.757 0.746 0 1.922 0.226 3.519 0.679 1.497 0.426 2.403 0.758 2.723 1-0.508 0.508-1.48 0.946-2.922 1.321l-0.277 0.199c2.558 0.851 3.637 1.332 3.238 1.441 0.613-0.054 1.348-0.066 2.199-0.043l0.801 0.043h0.078c-0.16-0.16-0.316-0.414-0.476-0.762-0.16-0.371-0.254-0.707-0.282-1l0.598-1.839c-1.519-1.465-3.383-2.348-5.598-2.641-5.839-0.773-8.828-1.172-8.96-1.199z" inkscape:connector-curvature="0"/>
      <path id="path40" style="fill-rule:evenodd;fill:#b2aea3" d="m8.359 24.16c0.133 0.082 1.106 0.641 2.922 1.68 0.024-0.266 0-0.547-0.082-0.84l-2.84-0.84zm-2.078-0.48c-0.586 0-1.066-0.211-1.441-0.641-0.399-0.398-0.574-0.863-0.52-1.398 0.028-0.532 0.266-0.985 0.719-1.36 0.43-0.347 0.922-0.508 1.481-0.48l-0.801-0.281c-0.692-0.051-1.891-0.079-3.598-0.079 0.32 0.532 0.598 1.25 0.84 2.161 0.371 0.906 1.144 1.878 2.32 2.918 0.184-0.344 0.52-0.625 1-0.84zm14.879 3.562-0.801-0.043 0.36 0.043h0.441z" inkscape:connector-curvature="0"/>
      <path id="path42" style="fill-rule:evenodd;fill:#68665f" d="m32.922 19-0.442-0.32c-0.48-0.344-1.015-0.68-1.601-1-1.52-0.664-3.184-1.239-5-1.719l-0.117-0.039c-1.602-0.453-3.055-0.801-4.364-1.043-2.425-0.426-5.304-0.586-8.636-0.477-1.121 0.078-2.789 0.332-5 0.758l-0.043 0.039-1.598 0.442c0.906 0.105 3.051 0.199 6.438 0.281 3.679 0.105 6.296 0.215 7.839 0.32 0.137 0.426 0.204 0.906 0.204 1.438 0 0.402-0.27 0.8-0.801 1.199-0.774 0.535-1.973 0.91-3.602 1.121l11.563 0.441c0.504 0.454 0.785 0.707 0.84 0.758 0.238 0.321 0.359 0.762 0.359 1.321 0 0.8-0.906 1.96-2.723 3.48l0.481-0.078c0.668-0.082 1.976-0.52 3.922-1.32 0.851 0 1.586-0.454 2.199-1.36 0.586-0.883 0.879-1.949 0.879-3.203-0.211-0.344-0.481-0.691-0.797-1.039zm-23.801-1.879c0.426 0.051 2.227-0.094 5.399-0.441l-4.2-0.2-0.84 0.36-0.359 0.281z" inkscape:connector-curvature="0"/>
      <path id="path44" style="fill-rule:evenodd;fill:#d2cdc1" d="m10.68 27.359 5.082-0.039 2.398-0.082c0.399-0.105-0.68-0.586-3.238-1.437l0.277-0.199c1.442-0.375 2.414-0.813 2.922-1.321-0.32-0.242-1.226-0.574-2.723-1-1.597-0.453-2.773-0.679-3.519-0.679-0.586 0-0.945 0.253-1.078 0.757 0 0.055 0.133 0.602 0.398 1.641 0.082 0.293 0.106 0.574 0.082 0.84-1.816-1.039-2.789-1.598-2.922-1.68-0.293-0.16-0.652-0.293-1.078-0.398-0.453-0.11-0.789-0.133-1-0.082-0.48 0.215-0.816 0.492-1 0.84 0 0.773 0.531 1.441 1.598 2 1.043 0.562 2.309 0.839 3.801 0.839z" inkscape:connector-curvature="0"/>
      <path id="path46" style="fill-rule:evenodd;fill:#817f76" d="m16.199 20c1.629-0.211 2.828-0.586 3.602-1.121 0.531-0.399 0.801-0.797 0.801-1.199 0-0.532-0.067-1.012-0.204-1.438-1.543-0.109-4.16-0.215-7.839-0.32-3.387-0.082-5.532-0.176-6.438-0.281l1.598-0.442c-1.547 0-2.864 0.414-3.957 1.242-1.094 0.825-1.641 1.825-1.641 3 1.707 0 2.906 0.028 3.598 0.082 1.894 0.051 5.386 0.211 10.48 0.477zm-7.078-2.879 0.359-0.281l0.84-0.36 4.2 0.2c-3.172 0.347-4.973 0.496-5.399 0.441z" inkscape:connector-curvature="0"/>
      <g id="g48" transform="matrix(1 0 0 -1 0 79.801)">
        <path id="path50" style="stroke-linejoin:round;stroke:#6d655a;stroke-linecap:round;stroke-miterlimit:3;stroke-width:.08;fill:none" d="m61.32 71.121h3.2" inkscape:connector-curvature="0"/>
      </g>
    </g>
  </g>
<metadata><rdf:RDF><cc:Work><dc:format>image/svg+xml</dc:format><dc:type rdf:resource="http://purl.org/dc/dcmitype/StillImage"/><cc:license rdf:resource="http://creativecommons.org/licenses/publicdomain/"/><dc:publisher><cc:Agent rdf:about="http://openclipart.org/"><dc:title>Openclipart</dc:title></cc:Agent></dc:publisher></cc:Work><cc:License rdf:about="http://creativecommons.org/licenses/publicdomain/"><cc:permits rdf:resource="http://creativecommons.org/ns#Reproduction"/><cc:permits rdf:resource="http://creativecommons.org/ns#Distribution"/><cc:permits rdf:resource="http://creativecommons.org/ns#DerivativeWorks"/></cc:License></rdf:RDF></metadata></svg>
